PathFileType	4	(X/Y/Z)	C:/Users/beibeiliu/ov580/test_trc/User1\sequence.29_training_dense_right.trc
DataRate	CameraRate	NumFrames	NumMarkers	Units	OrigDataRate	OrigDataStartFrame	OrigNumFrames
120	120	10	19	mm	120	1	142
Frame#	Time	ThumbCMC			ThumbMCP			ThumbIP			ThumbTip			IndexMCP			IndexPIP			IndexTip			MiddleMCP			MiddlePIP			MiddleTip			RingMCP			RingPIP			RingTip			PinkyMCP			PinkyPIP			PinkyTip			BackHand1			BackHand2			BackHand3	
		X0	Y0	Z0	X1	Y1	Z1	X2	Y2	Z2	X3	Y3	Z3	X4	Y4	Z4	X5	Y5	Z5	X6	Y6	Z6	X7	Y7	Z7	X8	Y8	Z8	X9	Y9	Z9	X10	Y10	Z10	X11	Y11	Z11	X12	Y12	Z12	X13	Y13	Z13	X14	Y14	Z14	X15	Y15	Z15	X16	Y16	Z16	X17	Y17	Z17	X18	Y18	Z18	
0	0	107.815	40.6015	106.969	82.5528	28.7139	83.6811	72.0641	24.1023	57.0644	62.7253	17.0347	37.4544	123.217	62.3165	23.9562	124.118	59.9692	-6.95865	123.374	55.7374	-30.0516	153.192	58.56	15.6641	149.829	54.5471	-13.5358	153.626	43.3476	-43.7593	170.354	38.596	18.742	168.125	21.8179	-8.01367	164.202	-3.31937	-23.7081	186.974	21.6552	35.7781	185.75	4.57472	17.2979	177.472	-13.214	1.20951	171.311	54.9808	78.1918	171.561	56.9578	114.387	137.974	63.6466	97.1814	
1	0.00833333	104.978	41.0487	103.118	86.2135	27.8102	85.2309	73.4015	24.4677	56.2161	59.5927	16.1148	40.2749	122.036	61.5021	24.7561	121.108	61.7582	-5.69145	126.005	53.8998	-32.4519	148.467	59.3508	17.3825	148.206	54.134	-16.6685	152.234	43.6545	-44.8598	167.164	39.4428	17.3081	171.969	22.8661	-4.58092	162.513	-1.5436	-22.7796	185.493	22.9009	37.3297	184.64	4.73954	17.1963	170.962	-12.5059	1.19682	169.925	54.7175	79.108	170.652	55.9036	114.661	136.38	64.8237	95.1189	
2	0.0166667	103.789	40.3047	108.883	86.6251	28.0916	83.0709	71.9752	24.7854	57.6683	62.5629	17.9282	39.1106	122.238	61.7873	24.8647	119.946	62.0612	-1.29096	126.366	54.986	-28.5266	148.547	59.5455	12.9038	147.71	54.7723	-15.5152	152.295	43.3419	-45.4073	169.56	39.4606	19.3827	167.471	24.7424	-4.09552	162.68	-0.677001	-20.7646	185.499	23.5346	35.9825	184.705	6.29422	20.2139	173.248	-9.48099	3.22027	170.647	55.3111	78.6589	173.556	56.8962	112.612	138.277	65.0435	97.2703	
3	0.025	102.45	42.3375	106.248	83.8436	29.344	85.971	72.4006	26.7585	56.3859	60.1676	18.7604	38.142	119.744	63.6767	26.9363	120.057	62.946	-5.21172	127.229	55.9911	-29.8046	152.062	60.3584	15.6193	151.187	54.9315	-16.0826	153.816	43.5019	-43.0711	167.773	41.3035	17.6397	167.701	23.2995	-7.37625	160.638	0.36555	-21.049	184.972	24.981	37.3182	183.878	9.58305	21.3748	172.238	-11.4646	1.13772	167.837	58.5394	79.0266	171.52	55.7604	115.342	134.162	66.248	94.0221	
4	0.0333333	100.932	44.9355	105.236	84.5945	31.0553	84.8153	71.8647	28.1233	57.7328	61.055	20.3427	37.2989	121.323	65.5558	23.7048	119.399	65.7998	-1.68711	126.668	57.5994	-28.582	147.2	62.9976	19.1966	148.836	56.4469	-15.6064	150.724	46.8676	-41.5524	167.19	43.4785	23.2448	165.215	26.3963	-7.62687	161.599	3.47835	-24.095	186.255	26.769	40.6784	183.812	10.267	17.1884	174.253	-7.49432	-0.341855	167.906	58.1049	82.5153	174.104	58.2366	115.673	139.107	66.1507	97.8625	
5	0.0416667	101.212	45.1697	103.702	86.4294	31.5247	83.5023	73.9965	27.4079	61.0179	62.0164	21.1252	40.1791	118.289	66.4918	25.0934	123.55	65.6424	-3.87105	121.051	61.1489	-31.8355	150.02	63.8153	19.4803	152.063	59.5358	-11.789	151.149	50.079	-39.7345	167.305	47.5919	20.6112	171.506	35.6366	-5.69865	164.65	17.2159	-24.6016	188.971	29.6463	38.5441	187.975	21.1501	19.1334	184.809	3.69588	-7.02781	171.6	57.4825	80.312	170.669	58.6292	113.234	138.41	67.4608	94.0703	
6	0.05	102.556	43.1907	104.308	82.1675	31.2727	84.9368	68.3361	28.1511	58.698	57.5971	19.8641	40.2946	118.421	67.9452	25.3014	117.006	68.7649	-4.08986	124.855	61.9723	-30.007	146.688	69.1757	19.4723	149.28	65.8569	-10.6564	152.324	57.8527	-40.6055	172.781	58.7792	24.5034	176.648	54.5316	-3.73616	175.927	42.2728	-27.3709	188.742	40.8237	43.7731	198.213	34.4592	19.6659	199.088	28.4781	-8.24959	166.825	61.4156	85.007	166.611	60.0173	116.852	134.3	67.6919	95.7972	
7	0.0583333	100.053	38.9076	108.177	81.401	27.9035	84.3999	68.573	24.3513	59.4327	57.1321	17.3105	38.1338	112.188	70.2944	25.3239	115.027	68.7341	-5.38957	117.448	63.9494	-32.392	145.18	77.5743	20.8083	146.068	79.236	-8.85421	152.929	77.3296	-41.7611	172.009	74.9804	31.214	178.543	82.316	4.36252	177.844	81.8266	-20.7791	189.44	55.3918	50.0216	199.619	59.8271	29.6816	210.693	65.6653	3.07494	163.008	67.9314	83.2346	164.036	62.7682	120.603	128.265	67.9166	100.586	
8	0.0666667	101.751	39.6046	103.891	80.6811	26.2686	85.7483	69.4459	22.9867	62.3103	56.2276	14.8945	41.9791	111.037	72.9192	25.9603	109.373	72.8453	-1.76445	114.322	68.087	-25.75	142.983	87.4359	27.747	144.064	94.838	-4.12513	146.769	98.7023	-28.194	165.937	84.5851	41.873	172.733	98.5813	17.2012	178.855	107.378	-11.278	189.854	66.2778	54.157	199.194	75.2205	33.2708	211.338	81.9918	12.4195	165.179	71.289	87.7614	165.617	64.7149	119.902	130.003	67.4498	103.592	
9	0.075	98.114	42.7383	111.117	78.3151	29.5765	87.5922	64.9801	26.5636	65.6424	51.4401	19.7949	44.463	111.603	83.5269	31.5482	105.96	84.9109	7.2938	110.148	82.8413	-23.3597	139.17	98.9047	33.405	142.987	110.25	5.75414	145.227	119.355	-18.0516	165.599	90.36	46.7553	170.223	106.454	21.7244	174.544	112.39	-7.23103	190.206	69.2692	55.8039	197.881	78.1261	32.0703	199.2	78.7015	3.40098	160.067	70.1276	91.3853	166.011	64.7848	120.429	132.023	71.9872	108.122	
